<svg width="146" height="146" viewBox="0 0 146 146" fill="none" xmlns="http://www.w3.org/2000/svg">
<path d="M72.6 0.0999756C32.6145 0.0999756 0.100006 32.5093 0.100006 72.6C0.100006 112.691 32.6145 145.1 72.6 145.1C112.691 145.1 145.1 112.585 145.1 72.6C145.1 32.6145 112.691 0.0999756 72.6 0.0999756ZM47.6617 21.6711C47.6617 15.9889 52.2916 11.4643 57.8685 11.4643C63.5507 11.4643 68.0753 16.0942 68.0753 21.6711C68.0753 22.3024 67.9701 36.7183 62.288 45.8728C62.1827 45.9781 55.764 56.5006 54.2909 65.3395L66.497 65.2342C68.1806 65.2342 69.5485 66.6022 69.6537 68.2858C69.6537 69.9694 68.2858 71.4425 66.6022 71.4425L50.9237 71.5477C50.0819 71.5477 49.3453 71.2321 48.7139 70.6007C48.0826 69.9694 47.7669 69.2328 47.7669 68.391C47.8721 57.4476 56.6058 43.137 57.0267 42.6109C61.8671 35.0347 61.8671 21.7763 61.8671 21.6711C61.8671 19.4614 60.0782 17.6725 57.8685 17.6725C55.6588 17.6725 53.87 19.4614 53.87 21.6711V31.2466C53.87 32.9302 52.502 34.4033 50.7132 34.4033C49.0296 34.4033 47.5565 33.0354 47.5565 31.2466V21.6711H47.6617ZM80.1762 105.746L66.497 119.636C65.8656 120.267 65.0238 120.793 64.0768 120.793C62.1827 120.793 60.7096 119.215 60.7096 117.321C60.7096 116.374 61.0253 115.532 61.7618 114.795L69.5485 106.903H51.1341C49.2401 106.903 47.6617 105.43 47.6617 103.536C47.6617 101.642 49.2401 100.064 51.1341 100.064H69.4433L61.5514 92.2771C60.92 91.6457 60.4991 90.9091 60.4991 89.9621C60.4991 88.0681 62.0775 86.4897 63.9716 86.4897C64.9186 86.4897 65.7604 86.9106 66.3917 87.5419L80.071 101.221C80.7023 101.853 81.1232 102.589 81.1232 103.536C81.1232 104.483 80.8076 105.115 80.1762 105.746ZM94.1711 128.369C94.1711 130.263 92.5928 131.842 90.6987 131.842C88.8047 131.842 87.2263 130.263 87.2263 128.369V79.6501C87.2263 77.756 88.8047 76.2829 90.6987 76.2829C92.5928 76.2829 94.1711 77.8612 94.1711 79.6501V128.369ZM94.4868 62.0775C94.4868 67.7596 89.8569 72.2843 84.28 72.2843C78.5978 72.2843 74.0732 67.6544 74.0732 62.0775V21.6711C74.0732 15.9889 78.7031 11.4643 84.28 11.4643C89.9621 11.4643 94.4868 16.0942 94.4868 21.6711V62.0775Z" fill="#4D517A"/>
<path d="M84.1748 17.6726C81.9651 17.6726 80.1762 19.4614 80.1762 21.6712V62.0775C80.1762 64.2873 81.9651 66.0761 84.1748 66.0761C86.3845 66.0761 88.1733 64.2873 88.1733 62.0775V21.6712C88.2786 19.4614 86.4897 17.6726 84.1748 17.6726Z" fill="#4D517A"/>
<path d="M66.497 87.5419C65.8656 86.9106 65.0238 86.4897 64.0768 86.4897C62.1827 86.4897 60.6044 88.0681 60.6044 89.9621C60.6044 90.9091 61.0253 91.6457 61.6566 92.2771L69.5485 100.064H51.1341C49.2401 100.064 47.6617 101.642 47.6617 103.536C47.6617 105.43 49.2401 106.903 51.1341 106.903H69.5485L61.7618 114.795C61.1305 115.427 60.7096 116.374 60.7096 117.321C60.7096 119.215 62.1827 120.793 64.0768 120.793C65.0238 120.793 65.8656 120.267 66.497 119.636L80.1762 105.746C80.8076 105.115 81.2285 104.483 81.2285 103.536C81.2285 102.589 80.8076 101.853 80.1762 101.221L66.497 87.5419Z" fill="white"/>
<path d="M90.6987 76.1776C88.8047 76.1776 87.2263 77.756 87.2263 79.5448V128.369C87.2263 130.263 88.8047 131.842 90.6987 131.842C92.5928 131.842 94.1711 130.263 94.1711 128.369V79.65C94.1711 77.756 92.5928 76.1776 90.6987 76.1776Z" fill="white"/>
<path d="M84.1748 11.4642C78.4926 11.4642 73.968 16.0941 73.968 21.6711V62.0774C73.968 67.7596 78.5979 72.2843 84.1748 72.2843C89.8569 72.2843 94.3816 67.6544 94.3816 62.0774V21.6711C94.4868 16.0941 89.8569 11.4642 84.1748 11.4642ZM88.2786 62.0774C88.2786 64.2872 86.4897 66.076 84.28 66.076C82.0703 66.076 80.2815 64.2872 80.2815 62.0774V21.6711C80.2815 19.4613 82.0703 17.6725 84.28 17.6725C86.4897 17.6725 88.2786 19.4613 88.2786 21.6711V62.0774Z" fill="white"/>
<path d="M50.7132 34.4033C52.3968 34.4033 53.87 33.0354 53.87 31.2465V21.6711C53.87 19.4613 55.6588 17.6725 57.8685 17.6725C60.0782 17.6725 61.8671 19.4613 61.8671 21.6711C61.8671 21.7763 61.7618 34.9294 57.0267 42.6108C56.6058 43.2422 47.9774 57.5528 47.7669 68.3909C47.7669 69.2327 48.0826 70.0745 48.7139 70.6007C49.3453 71.232 50.0819 71.5477 50.9237 71.5477L66.497 71.4425C68.1806 71.4425 69.5485 70.0745 69.5485 68.2857C69.5485 66.6021 68.1806 65.2342 66.3917 65.2342L54.2909 65.3394C55.764 56.5005 62.1827 45.978 62.288 45.8728C68.0753 36.7182 68.0753 22.3024 68.0753 21.6711C68.0753 15.9889 63.4454 11.4642 57.8685 11.4642C52.1864 11.4642 47.6617 16.0941 47.6617 21.6711V31.2465C47.6617 33.0354 49.0296 34.4033 50.7132 34.4033Z" fill="white"/>
</svg>
